# xmcd
#
# Track frame offsets:
#	150
#	15190
#	31655
#	47610
#
# Disc length: 887 seconds
#
# Revision: 4
# Processed by: cddbd v1.5.2PL0 Copyright (c) Steve Scherf et al.
# Submitted via: audiograbber 1.83.01
#
DISCID=1b037504
DTITLE=Gabrielle - Walk on by
DYEAR=1996
DGENRE=Soul
TTITLE0=Walk on by
TTITLE1=Walk on by (45% Novocaine remix)
TTITLE2=Walk on by (live from TFI Friday)
TTITLE3=Something to talk about
EXTD=
EXTT0=
EXTT1=
EXTT2=
EXTT3=
PLAYORDER=
